<?xml version="1.0" encoding="utf-8"?>
<!-- Generator: Adobe Illustrator 22.1.0, SVG Export Plug-In . SVG Version: 6.00 Build 0)  -->
<svg version="1.1" id="Layer_1" xmlns="http://www.w3.org/2000/svg" xmlns:xlink="http://www.w3.org/1999/xlink" x="0px" y="0px"
	 viewBox="0 0 46.5 19.4" style="enable-background:new 0 0 46.5 19.4;" xml:space="preserve">
<g>
	<path d="M11.1,6C10.5,6.4,10,6.8,9.5,7s-1,0.3-1.4,0.3c-0.3,0-0.7-0.1-1-0.2C6.9,7.7,6.8,8.2,6.6,8.8S6.2,9.9,6,10.3
		s-0.4,0.9-0.7,1.2s-0.5,0.5-0.7,0.6c-0.3,0.1-0.6,0.2-0.9,0.2s-0.6,0.1-0.9,0.1c-0.5,0-1-0.1-1.5-0.2s-0.8-0.4-0.9-0.7
		c-0.1-0.2-0.2-0.5-0.2-0.9S0,9.8,0,9.4C0,9,0,8.7,0.1,8.3s0.1-0.7,0.1-1.1s0.1-0.7,0.2-1s0.2-0.5,0.3-0.7c0.2-0.3,0.5-0.7,0.8-1
		s0.6-0.6,1-0.9s0.7-0.5,1.1-0.7s0.8-0.3,1.1-0.3h0.1l0.1,0.5C5.1,3.1,5.3,3,5.5,3c0.4,0,0.8,0.1,1.2,0.4s0.6,0.6,0.7,1
		c0,0.1,0,0.3,0,0.5c0,0.2,0,0.3,0,0.5s0,0.3,0,0.4c0.1,0,0.1,0,0.2,0.1C7.7,6,7.8,6,8.1,6c0.2,0,0.3,0,0.6,0s0.5-0.1,0.7-0.2
		s0.5-0.2,0.8-0.3s0.6-0.3,0.8-0.5L11.1,6z M2.5,11.3c0,0,0.1,0,0.2,0c0.4,0,0.7-0.1,0.9-0.3s0.5-0.4,0.7-0.7s0.4-0.6,0.5-0.9
		s0.3-0.6,0.3-0.9c0.1-0.2,0.1-0.4,0.2-0.7s0.1-0.7,0.2-1.1C5.4,6.7,5.2,6.6,5,6.4S4.6,6,4.5,5.8S4.1,5.3,4,5.1S3.9,4.6,3.9,4.3
		c0-0.1,0-0.1,0-0.2C3.6,4.3,3.4,4.5,3.1,4.7S2.7,5.2,2.5,5.4S2.1,6,2,6.2S1.7,6.8,1.7,7C1.6,7.3,1.5,7.6,1.5,8S1.4,8.8,1.4,9.2
		c0,0.3,0,0.5,0.1,0.8s0.1,0.5,0.2,0.7S1.8,11,2,11.1S2.3,11.3,2.5,11.3z M5.5,4.2c-0.1,0-0.2,0-0.3,0.1S5.1,4.5,5.1,4.6
		c0,0.2,0.1,0.4,0.2,0.6s0.3,0.3,0.5,0.4c0-0.1,0-0.2,0-0.3s0-0.2,0-0.3c0-0.3,0-0.5-0.1-0.6S5.6,4.2,5.5,4.2L5.5,4.2z"/>
	<path d="M11.2,4.4c0.2-0.1,0.4-0.2,0.6-0.3S12,4,12.1,4c0,0.1,0,0.1,0,0.1s0,0.1,0,0.1c0,0.1,0,0.1,0,0.2s0,0.1,0,0.2
		c0.4-0.3,0.7-0.6,1.1-0.8s0.8-0.4,1.1-0.5h0.1c0.1,0,0.3,0,0.5,0.1s0.4,0.2,0.7,0.3S16,4,16.1,4.1s0.2,0.3,0.2,0.4
		c0,0.1,0,0.3-0.1,0.5S16,5.6,15.9,6s-0.3,0.8-0.4,1.2S15.2,8.2,15,8.6s-0.2,0.9-0.3,1.3s-0.1,0.8-0.1,1c0,0.2,0,0.4,0.1,0.5
		s0.2,0.2,0.3,0.2c0.4-0.1,0.8-0.2,1.2-0.4c0.3-0.2,0.7-0.4,1.1-0.6s0.7-0.6,1-1.1l0.5,1.3c-0.3,0.3-0.6,0.6-1,0.9s-0.8,0.5-1.2,0.7
		s-0.8,0.4-1.2,0.5s-0.7,0.2-1,0.2c-0.3,0-0.5-0.1-0.7-0.2c-0.2-0.1-0.3-0.4-0.4-0.7s-0.1-0.8-0.1-1.2c0-0.2,0-0.5,0-0.7
		s0-0.5,0.1-0.7c0.1-0.5,0.2-1,0.4-1.5s0.3-1,0.4-1.5s0.3-0.9,0.4-1.3s0.2-0.7,0.2-0.9c-0.8,0.2-1.4,0.6-2,1.1s-1,1.1-1.4,1.8
		c-0.4,0.8-0.7,1.6-1,2.5s-0.5,1.7-0.9,2.5L8,12c0.2-0.2,0.3-0.5,0.5-0.9S8.8,10.3,9,9.9S9.3,9,9.5,8.5s0.3-0.9,0.4-1.4
		s0.2-0.9,0.3-1.2s0.1-0.7,0.1-1l0-0.1C10.6,4.7,10.9,4.5,11.2,4.4z"/>
	<path d="M26.1,10.9c0.1,0,0.2,0.1,0.3,0.1c0.3,0,0.6-0.1,1-0.3s0.8-0.5,1.1-0.7s0.7-0.6,1-0.9s0.5-0.5,0.7-0.7l0.6,1.1
		c-0.1,0.1-0.3,0.4-0.7,0.7s-0.7,0.6-1.1,1s-0.8,0.6-1.2,0.9s-0.7,0.4-0.9,0.4c0,0,0,0-0.1,0s0,0-0.1,0c-0.2,0-0.5,0-0.8-0.1
		s-0.6-0.2-0.9-0.4s-0.5-0.3-0.7-0.6s-0.3-0.5-0.4-0.7v-0.1c0-0.2,0-0.5,0.1-0.9s0.2-0.9,0.3-1.5s0.3-1.2,0.5-1.8s0.3-1.3,0.5-1.9
		c-0.6,0-1,0.1-1.4,0.2s-0.6,0.2-0.8,0.2l-0.1-1.3c0.5-0.1,0.9-0.2,1.3-0.3s0.8-0.1,1.3-0.1c0.2-0.7,0.4-1.4,0.6-1.9s0.4-1,0.5-1.2
		l1.6,0.1c-0.1,0.2-0.3,0.6-0.5,1.2s-0.5,1.3-0.7,2c0.4,0.1,0.8,0.2,1.2,0.3s0.8,0.2,1.1,0.2c0.2,0,0.4,0,0.6-0.1l0.2,1.3
		c-0.1,0-0.1,0-0.2,0s-0.1,0-0.2,0c-0.3,0-0.7,0-1.2-0.1s-1-0.2-1.5-0.3c-0.1,0-0.2,0-0.4-0.1c-0.2,0.5-0.3,1.1-0.4,1.6
		s-0.3,1.1-0.4,1.6S26,8.5,25.9,9s-0.1,0.8-0.1,1.1c0,0.2,0,0.4,0.1,0.6S26,10.9,26.1,10.9z"/>
	<path d="M40.9,6c-0.6,0.5-1.1,0.8-1.6,1s-1,0.3-1.4,0.3c-0.3,0-0.7-0.1-1-0.2c-0.1,0.6-0.3,1.1-0.5,1.7s-0.4,1.1-0.6,1.6
		s-0.4,0.9-0.7,1.2s-0.5,0.5-0.7,0.6c-0.3,0.1-0.6,0.2-0.9,0.2s-0.6,0.1-0.9,0.1c-0.5,0-1-0.1-1.5-0.2s-0.8-0.4-0.9-0.7
		c-0.1-0.2-0.2-0.5-0.2-0.9s-0.1-0.8-0.1-1.2c0-0.4,0-0.7,0.1-1.1s0.1-0.7,0.1-1.1s0.1-0.7,0.2-1s0.2-0.5,0.3-0.7
		c0.2-0.3,0.5-0.7,0.8-1s0.6-0.6,1-0.9s0.7-0.5,1.1-0.7s0.8-0.3,1.1-0.3h0.1l0.1,0.5C34.9,3.1,35.1,3,35.3,3c0.4,0,0.8,0.1,1.2,0.4
		s0.6,0.6,0.7,1c0,0.1,0,0.3,0,0.5c0,0.2,0,0.3,0,0.5s0,0.3,0,0.4c0.1,0,0.1,0,0.2,0.1C37.4,6,37.6,6,37.9,6c0.2,0,0.3,0,0.6,0
		s0.5-0.1,0.7-0.2s0.5-0.2,0.8-0.3s0.6-0.3,0.8-0.5L40.9,6z M32.3,11.3c0,0,0.1,0,0.2,0c0.4,0,0.7-0.1,0.9-0.3s0.5-0.4,0.7-0.7
		s0.4-0.6,0.5-0.9S35,8.8,35,8.6c0.1-0.2,0.1-0.4,0.2-0.7s0.1-0.7,0.2-1.1c-0.2-0.1-0.4-0.2-0.6-0.4S34.4,6,34.2,5.8
		s-0.3-0.5-0.4-0.7s-0.2-0.5-0.2-0.7c0-0.1,0-0.1,0-0.2c-0.3,0.2-0.5,0.4-0.8,0.6s-0.5,0.5-0.7,0.7S31.9,6,31.7,6.2S31.5,6.8,31.4,7
		c-0.1,0.3-0.1,0.6-0.2,1s-0.1,0.8-0.1,1.2c0,0.3,0,0.5,0.1,0.8s0.1,0.5,0.2,0.7s0.2,0.4,0.4,0.5S32.1,11.3,32.3,11.3z M35.2,4.2
		c-0.1,0-0.2,0-0.3,0.1s-0.1,0.2-0.1,0.3c0,0.2,0.1,0.4,0.2,0.6s0.3,0.3,0.5,0.4c0-0.1,0-0.2,0-0.3s0-0.2,0-0.3c0-0.3,0-0.5-0.1-0.6
		S35.4,4.2,35.2,4.2L35.2,4.2z"/>
	<path d="M43.5,3.3c0.1,0,0.1,0,0.2,0s0.1,0,0.2,0c0.2,0,0.5,0,0.8,0.1s0.6,0.2,0.9,0.3s0.5,0.3,0.7,0.5s0.3,0.4,0.3,0.7
		c0,0.1,0,0.3,0,0.6S46.4,6,46.3,6.3s-0.1,0.6-0.2,1S45.9,8,45.8,8.3c-0.1,0.4-0.3,0.9-0.5,1.3s-0.4,0.8-0.6,1.2s-0.5,0.7-0.7,0.9
		s-0.5,0.4-0.8,0.5c-0.2,0.1-0.4,0.1-0.5,0.1s-0.3,0-0.5,0c-0.6,0-1-0.1-1.4-0.4s-0.6-0.5-0.6-0.8c-0.3,0.8-0.6,1.6-0.9,2.5
		s-0.6,1.7-0.9,2.4s-0.5,1.4-0.7,2s-0.3,1-0.3,1.2v0l-1.4,0.1c-0.1-0.1-0.1-0.2-0.1-0.5c0-0.4,0.1-1.1,0.4-2s0.6-1.9,1.1-3
		c0.2-0.5,0.4-1,0.7-1.7s0.5-1.2,0.7-1.9s0.4-1.3,0.6-2s0.2-1.3,0.2-1.9c0-0.1,0-0.2,0-0.3s0-0.2,0-0.2c0-0.4-0.1-0.8-0.1-1.1
		s-0.1-0.6-0.2-0.7l1.1-0.8c0.1,0.2,0.2,0.5,0.3,0.7s0.2,0.5,0.2,0.7C40.9,4.9,41,5.2,41,5.4c0.2-0.2,0.4-0.4,0.6-0.7
		s0.4-0.4,0.7-0.6s0.5-0.4,0.7-0.5S43.4,3.4,43.5,3.3z M42.4,11.3c0.1,0,0.3-0.1,0.5-0.4s0.4-0.5,0.6-0.9s0.4-0.7,0.6-1.1
		s0.4-0.8,0.5-1.3s0.3-0.8,0.4-1.2s0.1-0.7,0.1-1c0-0.1,0-0.2,0-0.3c-0.1-0.3-0.3-0.5-0.4-0.7C43.7,4.6,43,5,42.4,5.4
		s-0.9,1-1.1,1.6c0,0.2-0.1,0.3-0.2,0.4c0,0.1,0,0.2,0,0.3s0,0.2-0.1,0.3c0,0.2-0.1,0.4-0.1,0.7s-0.1,0.5-0.2,0.8
		c0,0.2,0.1,0.4,0.2,0.6s0.2,0.4,0.4,0.6s0.3,0.3,0.5,0.5s0.3,0.2,0.5,0.2C42.3,11.3,42.4,11.3,42.4,11.3z"/>
</g>
</svg>
